<svg xmlns="http://www.w3.org/2000/svg" width="50" height="49.995" viewBox="0 0 50 49.995">
  <g id="avatar" transform="translate(-761 -71)">
    <circle id="Ellipse_15" data-name="Ellipse 15" cx="24.995" cy="24.995" r="24.995" transform="translate(761.005 71.005)" fill="#fff"/>
    <path id="Subtraction_1" data-name="Subtraction 1" d="M10.587,44.7h0a24.945,24.945,0,0,1-7.695-8.607,24.3,24.3,0,0,1-.927-21.068A24.5,24.5,0,0,1,7.322,7.2,25.347,25.347,0,0,1,34.731,1.933,24.94,24.94,0,0,1,42.678,7.2a24.5,24.5,0,0,1,5.358,7.819,24.254,24.254,0,0,1-.927,21.068,24.939,24.939,0,0,1-7.7,8.606,18.767,18.767,0,0,0-28.825,0ZM25,15.461A9.137,9.137,0,1,0,34.285,24.6,9.223,9.223,0,0,0,25,15.461Z" transform="translate(761 71)" fill="#4c70f0"/>
  </g>
</svg>
